
        <svg xmlns="http://www.w3.org/2000/svg" xmlns:xlink="http://www.w3.org/1999/xlink" version="1.1" width="3175.963821960589" height="746.0866051129004" viewBox="0 0 3175.963821960589 746.0866051129004">
			
			<g transform="scale(8.798191098029484) translate(10, 10)">
				<defs id="SvgjsDefs5312"/><g id="SvgjsG5313" featureKey="nameLeftFeature-0" transform="matrix(1.844262251832159,0,0,1.844262251832159,-1.6598379613570395,6.479508607594491)" fill="#fff"><path d="M4.86 16.87 q1.42 0.57 2.6 0.57 q1.24 0 1.97 -0.48 t0.73 -1.14 q0 -0.54 -0.43 -0.88 t-1.09 -0.51 t-1.74 -0.37 q-1.44 -0.24 -2.64 -0.62 t-2.18 -1.32 t-0.98 -2.54 q0 -2.36 1.73 -3.39 t4.07 -1.03 q1.8 0 3.13 0.49 t2.65 1.47 l-1.76 2.4 q-0.98 -0.7 -2.04 -1.1 t-2.1 -0.4 q-0.92 0 -1.72 0.33 t-0.8 1.11 q0 0.48 0.41 0.77 t0.9 0.42 t1.59 0.37 l0.72 0.14 q1.66 0.32 2.75 0.71 t1.89 1.31 t0.8 2.56 q0 2.22 -1.57 3.38 t-4.25 1.16 q-3.92 0 -6.6 -2.28 l1.68 -2.42 q0.86 0.72 2.28 1.29 z M18.54 4.880000000000001 l0 8.8 l3.74 -4.62 l3.66 0 l-4.42 5.12 l4.6 5.82 l-3.62 0 l-2.88 -3.6 l-1.08 1.24 l0 2.36 l-3 0 l0 -15.12 l3 0 z M29.320000000000004 24.12 l1.9 -4.52 l-4.72 -10.56 l3.46 0 l2.78 7 l2.56 -7 l3.46 0 l-6.14 15.08 l-3.3 0 z M40.580000000000005 4.880000000000001 l3 0 l0 15.12 l-3 0 l0 -15.12 z M49.24000000000001 7.369999999999999 q-0.48 0.47 -1.16 0.47 q-0.7 0 -1.19 -0.47 t-0.49 -1.15 q0 -0.66 0.49 -1.13 t1.19 -0.47 q0.68 0 1.16 0.47 t0.48 1.13 q0 0.68 -0.48 1.15 z M46.58000000000001 9.02 l3 0 l0 10.98 l-3 0 l0 -10.98 z M62.37000000000001 22.77 q-1.47 1.37 -4.09 1.37 q-3.14 0 -5.26 -1.66 l1.46 -2.12 q0.68 0.54 1.61 0.88 t1.97 0.34 q2.82 0 2.82 -2.56 l0 -0.18 q-1.2 0.98 -3.08 0.98 q-1.74 0 -3.06 -0.73 t-2.02 -1.99 t-0.7 -2.78 q0 -1.54 0.7 -2.79 t2.01 -1.99 t3.07 -0.74 q1.88 0 3.08 0.98 l0 -0.78 l2.96 0 l0 10.02 q0 2.38 -1.47 3.75 z M59.51000000000001 16.91 q0.69 -0.39 1.09 -1.08 t0.4 -1.51 q0 -0.84 -0.4 -1.52 t-1.09 -1.07 t-1.53 -0.39 q-1.36 0 -2.19 0.85 t-0.83 2.13 q0 1.32 0.81 2.15 t2.21 0.83 q0.84 0 1.53 -0.39 z M76.05000000000001 10.02 q1.03 1.22 1.03 3.48 l0 6.5 l-3.04 0 l0 -6.5 q0 -1.18 -0.59 -1.7 t-1.55 -0.52 q-0.82 0 -1.48 0.65 t-0.62 2.25 l0 5.82 l-2.98 0 l0 -15.14 l2.98 0 l0 5.12 q0.54 -0.54 1.36 -0.86 t1.58 -0.32 q2.28 0 3.31 1.22 z M83.70000000000002 16.08 q0 0.7 0.24 1.17 t1.12 0.47 q0.4 0 0.76 -0.04 l0 2.52 q-0.72 0.08 -1.34 0.08 q-1.28 0 -2.07 -0.21 t-1.23 -0.81 t-0.44 -1.72 l0 -6.1 l-1.34 0 l0 -2.62 l1.34 0 l0 -2.94 l2.96 0 l0 2.94 l2.2 0 l0 2.62 l-2.2 0 l0 4.64 z"/></g><g id="SvgjsG5314" featureKey="inlineSymbolFeature-0" transform="matrix(0.6871686441740024,0,0,0.6871686441740024,166.00530038254578,-1.9927891336381156)" fill="#fff"><path xmlns="http://www.w3.org/2000/svg" d="M71.1,19.5C69.7,10,61.7,2.9,51.9,2.9c-7.1,0-13.7,4-17,10.2c-0.8-0.2-1.6-0.3-2.5-0.3c-5.7,0-10.3,4.6-10.3,10.3  c0,0.9,0.1,1.8,0.3,2.6c-4,2.7-6.4,7.2-6.4,12c0,7.9,6.3,14.9,13.8,15.3c0,0,0,0,0.1,0h38.5c0,0,0.1,0,0.1,0  c8.6-0.6,15.4-8,15.4-16.9C83.9,28.1,78.5,21.2,71.1,19.5z M68.4,50.5H29.9c-6.2-0.4-11.4-6.2-11.4-12.8c0-4.3,2.3-8.3,6-10.4  c0.5-0.3,0.7-0.9,0.5-1.5c-0.3-0.8-0.5-1.7-0.5-2.7c0-4.3,3.5-7.8,7.8-7.8c0.9,0,1.8,0.2,2.7,0.5c0.6,0.2,1.3-0.1,1.5-0.6  c2.8-5.9,8.8-9.7,15.3-9.7c8.8,0,16,6.6,16.8,15.3c0.1,0.5,0.5,1,1,1.1C76.5,22.8,81.5,29,81.5,36C81.5,43.4,75.6,49.9,68.4,50.5z   M39.5,60.8c-0.7,0-1.2,0.5-1.2,1.2v10.8c0,2.3-1.8,4.1-4.1,4.1H28c-0.6-2.7-3-4.7-5.8-4.7c-3.3,0-6,2.7-6,6c0,3.3,2.7,6,6,6  c2.9,0,5.3-2,5.8-4.7h6.2c3.6,0,6.5-2.9,6.5-6.5V62.1C40.8,61.4,40.2,60.8,39.5,60.8z M22.2,81.7c-1.9,0-3.5-1.6-3.5-3.5  c0-1.9,1.6-3.5,3.5-3.5s3.5,1.6,3.5,3.5C25.7,80.1,24.1,81.7,22.2,81.7z M77.8,72.2c-2.9,0-5.3,2-5.8,4.7h-6.2  c-2.3,0-4.1-1.8-4.1-4.1l0-10.8c0-0.7-0.5-1.2-1.2-1.2s-1.2,0.5-1.2,1.2l0,10.8c0,3.6,2.9,6.5,6.5,6.5H72c0.6,2.7,3,4.7,5.8,4.7  c3.3,0,6-2.7,6-6C83.8,74.9,81.1,72.2,77.8,72.2z M77.8,81.7c-1.9,0-3.5-1.6-3.5-3.5c0-1.9,1.6-3.5,3.5-3.5s3.5,1.6,3.5,3.5  C81.3,80.1,79.8,81.7,77.8,81.7z M51.2,85.1v-23c0-0.7-0.5-1.2-1.2-1.2c-0.7,0-1.2,0.5-1.2,1.2v23c-2.8,0.6-4.9,3-4.9,6  c0,3.4,2.7,6.1,6.1,6.1s6.1-2.7,6.1-6.1C56.1,88.1,54,85.6,51.2,85.1z M50,94.6c-2,0-3.5-1.6-3.5-3.5s1.6-3.5,3.5-3.5  s3.5,1.6,3.5,3.5S52,94.6,50,94.6z"/></g><g id="SvgjsG5315" featureKey="nameRightFeature-0" transform="matrix(1.9426920099809901,0,0,1.9426920099809901,229.31324944205318,4.548316763978816)" fill="#fff"><path d="M7.5600000000000005 5.380000000000001 l6.04 0 q3.26 0 5.34 1.84 q1.12 0.98 1.7 2.37 t0.58 3.09 q0 1.66 -0.6 3.09 t-1.68 2.41 q-1 0.88 -2.37 1.35 t-2.97 0.47 l-6.04 0 l0 -14.62 z M13.6 17.259999999999998 q1.88 0 3.15 -0.98 t1.27 -3.58 t-1.28 -3.58 t-3.14 -0.98 l-2.88 0 l0 9.12 l2.88 0 z M32.06 18.9 q-0.38 0.52 -1.31 0.93 t-2.03 0.41 q-1.7 0 -2.95 -0.76 t-1.91 -2.07 t-0.66 -2.91 t0.66 -2.91 t1.91 -2.07 t2.95 -0.76 q1.14 0 2.01 0.39 t1.33 0.99 l0 -1.14 l2.96 0 l0 11 l-2.96 0 l0 -1.1 z M31.36 12.25 q-0.82 -0.87 -2.2 -0.87 q-1.4 0 -2.21 0.87 t-0.81 2.25 q0 1.34 0.83 2.22 t2.19 0.88 q1.4 0 2.21 -0.83 t0.81 -2.27 q0 -1.38 -0.82 -2.25 z M41.68 16.08 q0 0.7 0.24 1.17 t1.12 0.47 q0.4 0 0.76 -0.04 l0 2.52 q-0.72 0.08 -1.34 0.08 q-1.28 0 -2.07 -0.21 t-1.23 -0.81 t-0.44 -1.72 l0 -6.1 l-1.34 0 l0 -2.62 l1.34 0 l0 -2.94 l2.96 0 l0 2.94 l2.2 0 l0 2.62 l-2.2 0 l0 4.64 z M54.519999999999996 18.9 q-0.38 0.52 -1.31 0.93 t-2.03 0.41 q-1.7 0 -2.95 -0.76 t-1.91 -2.07 t-0.66 -2.91 t0.66 -2.91 t1.91 -2.07 t2.95 -0.76 q1.14 0 2.01 0.39 t1.33 0.99 l0 -1.14 l2.96 0 l0 11 l-2.96 0 l0 -1.1 z M53.81999999999999 12.25 q-0.82 -0.87 -2.2 -0.87 q-1.4 0 -2.21 0.87 t-0.81 2.25 q0 1.34 0.83 2.22 t2.19 0.88 q1.4 0 2.21 -0.83 t0.81 -2.27 q0 -1.38 -0.82 -2.25 z"/></g>
			</g>
		</svg>
	